<svg xmlns="http://www.w3.org/2000/svg" xmlns:xlink="http://www.w3.org/1999/xlink" width="490" zoomAndPan="magnify" viewBox="0 0 367.5 367.500003" height="490" preserveAspectRatio="xMidYMid meet" version="1.0"><defs><clipPath id="592b0129bf"><path d="M 18.4375 18.4375 L 348.5625 18.4375 L 348.5625 348.5625 L 18.4375 348.5625 Z M 18.4375 18.4375 " clip-rule="nonzero"/></clipPath><clipPath id="4464489f98"><path d="M 183.5 18.4375 C 92.339844 18.4375 18.4375 92.339844 18.4375 183.5 C 18.4375 274.660156 92.339844 348.5625 183.5 348.5625 C 274.660156 348.5625 348.5625 274.660156 348.5625 183.5 C 348.5625 92.339844 274.660156 18.4375 183.5 18.4375 Z M 183.5 18.4375 " clip-rule="nonzero"/></clipPath></defs><g clip-path="url(#592b0129bf)"><g clip-path="url(#4464489f98)"><path fill="#ffffff" d="M 18.4375 18.4375 L 348.5625 18.4375 L 348.5625 348.5625 L 18.4375 348.5625 Z M 18.4375 18.4375 " fill-opacity="1" fill-rule="nonzero"/></g></g><path fill="#01497c" d="M 183.5 0 C 82.15625 0 0 82.15625 0 183.5 C 0 284.84375 82.15625 367 183.5 367 C 284.84375 367 367 284.84375 367 183.5 C 367 82.15625 284.84375 0 183.5 0 Z M 183.5 344.0625 C 94.964844 344.0625 22.9375 272.035156 22.9375 183.5 C 22.9375 94.964844 94.964844 22.9375 183.5 22.9375 C 272.035156 22.9375 344.0625 94.964844 344.0625 183.5 C 344.0625 272.035156 272.035156 344.0625 183.5 344.0625 Z M 183.5 344.0625 " fill-opacity="1" fill-rule="nonzero"/><path fill="#01497c" d="M 71.589844 193.921875 L 152.765625 229.210938 L 152.765625 206.367188 L 96.140625 183.910156 L 152.765625 162.261719 L 152.765625 139.242188 L 71.589844 174.378906 Z M 71.589844 193.921875 " fill-opacity="1" fill-rule="nonzero"/><path fill="#01497c" d="M 160.269531 244.726562 L 176.992188 244.726562 L 206.640625 122.277344 L 189.59375 122.277344 Z M 160.269531 244.726562 " fill-opacity="1" fill-rule="nonzero"/><path fill="#01497c" d="M 214.15625 162.101562 L 270.859375 184.144531 L 214.15625 206.445312 L 214.15625 229.304688 L 295.410156 193.921875 L 295.410156 174.535156 L 214.15625 139.398438 Z M 214.15625 162.101562 " fill-opacity="1" fill-rule="nonzero"/></svg>